<svg width="24" height="24" viewBox="0 0 24 24" fill="none" xmlns="http://www.w3.org/2000/svg">
<path d="M2.87813 1.18994C4.40203 2.734 5.42859 4.52557 6.24891 6.30447C6.47859 5.74197 6.59109 5.26385 7.13484 4.79041C9.33797 6.0326 9.96141 6.8201 10.1536 8.55916H13.2848C13.3692 6.87166 13.6411 5.9201 14.9958 4.67744C15.7411 5.25916 15.9333 5.93885 16.313 6.58572C16.7114 4.76229 18.0614 2.77572 19.9083 1.80963C17.4473 1.26775 14.8223 1.78947 12.7223 2.63182C13.1583 2.93135 13.7864 3.15822 13.9833 3.54588C13.0927 4.00479 12.1317 5.53104 11.5833 6.79666C10.9223 5.6201 9.54422 4.29166 8.20828 3.62604C8.74734 3.08322 9.28641 2.88588 9.82547 2.55307C8.27859 1.69197 5.50828 1.26541 2.87813 1.18994ZM3.29297 9.40291L1.35938 14.5592H6.45984L8.39109 9.40291H3.29297ZM9.60984 9.40291L11.5411 14.5592H22.6411L20.7098 9.40291H9.60984ZM8.57859 11.306L7.04109 15.4029H3.42234V22.8092H8.57859V11.306ZM9.42234 11.306V22.8092H20.5786V15.4029H10.9598L9.42234 11.306Z" fill="#FFAE00"/>
</svg>
